<?xml version="1.0" encoding="UTF-8"?><svg id="Layer_1" xmlns="http://www.w3.org/2000/svg" viewBox="0 0 304.47 172.76"><defs><style>.cls-1{fill:#6cbb48;}.cls-2{fill:#0c3450;}</style></defs><path class="cls-1" d="M114.18,10s65,38,54,86c0,0,54-37-54-86Z"/><path class="cls-1" d="M178.58,53s5.6,6,5.6,11c0,0,12.66-22.66,27.83-27.83,0,0-15.83-.17-33.43,16.83Z"/><circle class="cls-1" cx="177.68" cy="36.5" r="7.5"/><path class="cls-2" d="M188.18,10s-65,38-54,86c0,0-54-37,54-86Z"/><path class="cls-2" d="M123.78,53s-5.6,6-5.6,11c0,0-12.66-22.66-27.83-27.83,0,0,15.83-.17,33.43,16.83Z"/><circle class="cls-2" cx="124.68" cy="36.5" r="7.5"/><circle class="cls-2" cx="151.68" cy="9.5" r="9.5"/><path class="cls-2" d="M220.18,89.52c0,15.75-30.22,28.52-67.5,28.52s-67.5-12.77-67.5-28.52c0-6.94,5.86-13.29,15.6-18.24-6.69,4.07-10.6,8.96-10.6,14.22,0,14.08,27.98,25.5,62.5,25.5s62.5-11.42,62.5-25.5c0-5.26-3.91-10.15-10.6-14.22,9.74,4.95,15.6,11.3,15.6,18.24Z"/><path class="cls-2" d="M9.69,125.04v.44h-2.31l5.7,16.68h.06l3.32-9.43-2.47-7.25h-1.71v-.44h9.47v.44h-2.94l5.73,16.71h.06l5.86-16.71h-2.72v-.44h5.82v.44h-2.56l-8.14,22.95h-.92l-5.19-14.97h-.06l-5.32,14.97h-.92l-7.85-22.95H0v-.44h9.69Z"/><path class="cls-2" d="M43.08,125.04l5.48,15.77h.06l5.57-15.77h7.91v.44h-2.91v21.65h2.91v.44h-10.38v-.44h2.88v-21.65h-.06l-7.79,22.1h-.51l-7.82-22.1h-.06v21.65h2.91v.44h-6.33v-.44h2.91v-21.65h-2.91v-.44h8.14Z"/><path class="cls-2" d="M66.35,140.56c.04.25.12.59.22,1,.11.41.26.85.46,1.33.2.48.45.96.76,1.46.31.5.68.96,1.12,1.38.49.49.96.85,1.41,1.11.45.25.89.44,1.3.55.41.12.8.18,1.17.19.37.01.71.02,1.03.02,1.12,0,2.04-.17,2.75-.52.72-.35,1.28-.78,1.69-1.28.41-.51.7-1.04.87-1.6.17-.56.25-1.05.25-1.47,0-.78-.19-1.42-.55-1.93-.37-.51-.86-.93-1.47-1.27-.61-.34-1.31-.62-2.09-.85-.78-.23-1.58-.47-2.41-.71-.82-.24-1.63-.53-2.41-.85s-1.48-.75-2.09-1.27c-.61-.52-1.1-1.16-1.47-1.92-.37-.76-.55-1.71-.55-2.85,0-.84.19-1.66.57-2.44s.91-1.47,1.58-2.07c.67-.6,1.48-1.09,2.42-1.46.94-.37,1.96-.55,3.06-.55.7,0,1.31.06,1.84.19.53.13.99.26,1.39.4.4.14.75.27,1.06.4.31.13.59.19.84.19.3,0,.49-.05.59-.14.1-.09.19-.27.3-.52h.51v6.01h-.41c-.25-.74-.52-1.47-.81-2.18-.28-.72-.65-1.37-1.09-1.95-.44-.58-1-1.05-1.68-1.41-.68-.36-1.53-.54-2.56-.54-.84,0-1.59.12-2.23.35-.64.23-1.19.54-1.63.92-.44.38-.78.8-1.01,1.27-.23.46-.35.94-.35,1.42,0,.74.2,1.35.59,1.84.39.49.9.9,1.54,1.25.63.35,1.36.65,2.17.9.81.25,1.65.52,2.5.79.85.27,1.69.58,2.5.9.81.33,1.54.74,2.17,1.25.63.51,1.14,1.12,1.54,1.84.39.72.59,1.6.59,2.66s-.21,2.02-.63,2.94c-.42.93-1.02,1.74-1.79,2.44-.77.7-1.69,1.25-2.75,1.66-1.07.41-2.25.62-3.56.62-.65,0-1.3-.06-1.95-.19-.64-.13-1.25-.26-1.8-.4-.56-.14-1.06-.27-1.49-.4-.43-.13-.75-.19-.97-.19-.3,0-.51.05-.63.14-.13.09-.24.29-.35.59h-.51v-7.03h.48Z"/><path class="cls-2" d="M114.69,125.04v5.41h-.41c-.11-.36-.28-.82-.54-1.38-.25-.56-.61-1.1-1.06-1.63-.45-.53-1.04-.99-1.76-1.38-.72-.39-1.59-.59-2.63-.59h-5.03v9.78h1.77c.78,0,1.44-.11,1.98-.33s.99-.54,1.35-.95.65-.91.89-1.49c.23-.58.42-1.23.57-1.95h.41v9.85h-.41c-.15-.61-.32-1.2-.52-1.77-.2-.57-.47-1.07-.81-1.5-.34-.43-.75-.78-1.25-1.03-.5-.25-1.11-.38-1.85-.38h-2.12v11.43h5.19c.97,0,1.85-.16,2.63-.49.78-.33,1.47-.79,2.07-1.38.6-.59,1.1-1.28,1.5-2.07.4-.79.71-1.64.92-2.55h.41v6.93h-20.23v-.44h2.91v-21.65h-2.91v-.44h18.93Z"/><path class="cls-2" d="M119.16,125.49v-.44h2.91c1.08,0,2.15-.02,3.23-.05,1.08-.03,2.15-.05,3.23-.05.95,0,1.95.06,3.01.19,1.06.13,2.1.35,3.13.68,1.03.33,2.02.77,2.94,1.31s1.75,1.25,2.47,2.09c.72.84,1.29,1.85,1.71,3.01s.63,2.52.63,4.08-.21,2.89-.63,4.05c-.42,1.16-.99,2.16-1.69,3.01-.71.84-1.51,1.54-2.42,2.09-.91.55-1.85.99-2.83,1.31s-1.95.55-2.91.68c-.96.13-1.85.19-2.68.19-1.2,0-2.4-.01-3.59-.03-1.19-.02-2.39-.03-3.59-.03h-2.91v-.44h2.91v-21.65h-2.91ZM128.34,147.24c1.37,0,2.54-.16,3.51-.49.97-.33,1.79-.77,2.45-1.33.66-.56,1.19-1.2,1.58-1.92.39-.72.69-1.47.89-2.26s.33-1.58.4-2.37c.06-.79.1-1.54.1-2.23,0-1.71-.11-3.26-.32-4.64s-.63-2.56-1.25-3.55c-.62-.98-1.5-1.74-2.63-2.26-1.13-.53-2.61-.79-4.45-.79-.42,0-.8,0-1.14.02-.34.01-.61.04-.82.08v21.65c.61.06,1.17.1,1.68.1Z"/><path class="cls-2" d="M156.1,125.04v.44h-2.91v14.21c0,.99.05,1.96.14,2.9.1.94.32,1.78.67,2.52.35.74.87,1.33,1.55,1.79.69.45,1.61.68,2.77.68s2.09-.13,2.87-.4c.77-.26,1.41-.61,1.92-1.04.51-.43.9-.92,1.17-1.46s.48-1.08.6-1.61c.13-.54.2-1.04.22-1.52.02-.47.03-.87.03-1.19v-14.88h-2.88v-.44h6.33v.44h-2.94v14.85c0,.34-.01.77-.03,1.28-.02.52-.11,1.06-.25,1.63s-.37,1.14-.66,1.71c-.3.57-.73,1.08-1.3,1.54-.57.45-1.29.82-2.15,1.11-.87.29-1.93.43-3.2.43-2.05,0-3.69-.23-4.94-.68s-2.2-1.04-2.86-1.77c-.67-.73-1.1-1.56-1.31-2.48s-.32-1.87-.32-2.82v-14.78h-2.94v-.44h10.45Z"/><path class="cls-2" d="M190.35,131.5c-.23-.7-.51-1.43-.84-2.2-.33-.77-.75-1.48-1.27-2.12-.52-.64-1.16-1.17-1.93-1.58s-1.73-.62-2.87-.62c-1.54,0-2.75.29-3.64.85-.89.57-1.56,1.36-2.01,2.37s-.74,2.22-.87,3.62c-.13,1.4-.19,2.94-.19,4.61,0,2.19.13,4.01.38,5.44.25,1.44.65,2.58,1.19,3.42.54.84,1.23,1.44,2.09,1.77.86.34,1.87.51,3.05.51.95,0,1.81-.19,2.58-.57s1.45-.88,2.04-1.5c.59-.62,1.09-1.33,1.49-2.14.4-.8.7-1.64.89-2.5h.51v6.71h-.51c-.11-.25-.23-.43-.38-.52-.15-.09-.37-.14-.67-.14-.25,0-.58.06-.98.17-.4.12-.86.24-1.38.38-.52.14-1.08.26-1.69.38-.61.12-1.26.17-1.93.17-1.54,0-3.03-.3-4.46-.9s-2.7-1.42-3.78-2.47c-1.09-1.04-1.96-2.27-2.61-3.69-.65-1.41-.98-2.94-.98-4.59,0-1.79.36-3.42,1.09-4.88.73-1.46,1.66-2.7,2.8-3.74,1.14-1.03,2.41-1.83,3.82-2.39,1.4-.56,2.78-.84,4.13-.84.67,0,1.3.06,1.88.19.58.13,1.12.26,1.61.4s.94.27,1.35.4c.4.13.74.19,1.01.19.3,0,.52-.04.67-.11s.25-.26.32-.55h.51v6.46h-.41Z"/><path class="cls-2" d="M195.38,147.14l9.43-22.98h.85l9.97,22.98h2.72v.44h-10.64v-.44h2.94l-3.67-8.48h-7.6l-3.51,8.48h2.82v.44h-5.98v-.44h2.66ZM199.56,138.21h7.28l-3.74-8.64-3.54,8.64Z"/><path class="cls-2" d="M225.96,125.49c-.78,0-1.48.08-2.09.24-.61.16-1.16.43-1.65.82-.49.39-.92.93-1.3,1.63-.38.7-.73,1.58-1.04,2.66h-.41v-5.79h19.85v5.79h-.41c-.32-1.08-.67-1.96-1.04-2.66-.38-.7-.81-1.24-1.3-1.63-.49-.39-1.03-.66-1.65-.82-.61-.16-1.31-.24-2.09-.24h-1.14v21.65h2.91v.44h-10.42v-.44h2.91v-21.65h-1.14Z"/><path class="cls-2" d="M252.9,125.04v.44h-2.91v21.65h2.91v.44h-10.42v-.44h2.91v-21.65h-2.91v-.44h10.42Z"/><path class="cls-2" d="M257.26,131.5c.73-1.46,1.66-2.7,2.8-3.74,1.14-1.03,2.42-1.83,3.83-2.39,1.41-.56,2.8-.84,4.15-.84,1.46,0,2.9.27,4.32.82,1.42.55,2.69,1.33,3.8,2.34,1.11,1.01,2,2.24,2.69,3.69.69,1.45,1.03,3.08,1.03,4.89,0,1.58-.32,3.09-.97,4.51-.64,1.42-1.51,2.68-2.6,3.75-1.09,1.08-2.34,1.93-3.77,2.55s-2.93.93-4.51.93-3.06-.3-4.5-.9c-1.44-.6-2.7-1.42-3.78-2.47-1.09-1.04-1.96-2.27-2.61-3.69-.65-1.41-.98-2.94-.98-4.59,0-1.79.36-3.42,1.09-4.88ZM261.7,141.84c.25,1.45.65,2.6,1.19,3.45.54.85,1.23,1.45,2.09,1.79.85.34,1.87.51,3.05.51,1.56,0,2.79-.29,3.67-.87.89-.58,1.55-1.38,1.99-2.41.44-1.02.72-2.24.84-3.64.12-1.4.17-2.93.17-4.57,0-1.48-.05-2.89-.14-4.23-.09-1.34-.36-2.52-.81-3.55-.44-1.02-1.11-1.84-2.01-2.44-.9-.6-2.14-.9-3.72-.9-1.48,0-2.66.28-3.55.84-.89.56-1.56,1.35-2.03,2.36-.46,1.01-.77,2.22-.92,3.61-.15,1.39-.22,2.92-.22,4.59,0,2.2.13,4.02.38,5.46Z"/><path class="cls-2" d="M290.45,125.04l10.54,15.07h.06v-14.63h-2.91v-.44h6.33v.44h-2.91v22.1h-.86l-14.25-20.29h-.06v19.85h2.91v.44h-6.33v-.44h2.91v-21.65h-2.91v-.44h7.47Z"/><path class="cls-1" d="M79.2,172.56h-2.8v-7.3l-2.02,4.74h-1.94l-2.02-4.74v7.3h-2.65v-10.91h3.27l2.45,5.47,2.45-5.47h3.27v10.91Z"/><path class="cls-1" d="M104.06,172.56h-2.9l-.76-2.21h-4.04l-.76,2.21h-2.83l4.03-10.91h3.24l4.03,10.91ZM99.72,168.35l-1.34-3.91-1.34,3.91h2.68Z"/><path class="cls-1" d="M125.49,172.56h-7.87v-10.91h2.81v8.8h5.05v2.11Z"/><path class="cls-1" d="M149.27,172.56h-2.9l-.76-2.21h-4.04l-.76,2.21h-2.83l4.03-10.91h3.24l4.03,10.91ZM144.93,168.35l-1.34-3.91-1.34,3.91h2.68Z"/><path class="cls-1" d="M172.43,161.65l-4.02,6.69v4.22h-2.81v-4.09l-4.09-6.82h3.2l2.35,4.21,2.27-4.21h3.09Z"/><path class="cls-1" d="M194.61,169.13c0,1.07-.46,1.95-1.37,2.62-.91.67-2.15,1.01-3.71,1.01-.9,0-1.69-.08-2.36-.24-.67-.16-1.3-.36-1.89-.6v-2.62h.31c.58.46,1.23.82,1.95,1.07.72.25,1.41.37,2.08.37.17,0,.39-.01.67-.04.28-.03.5-.08.68-.15.21-.09.39-.2.53-.33.14-.13.21-.33.21-.59,0-.24-.1-.45-.3-.62-.2-.17-.5-.31-.89-.4-.41-.1-.84-.19-1.3-.27-.46-.09-.89-.19-1.29-.33-.92-.3-1.58-.7-1.98-1.21-.4-.51-.6-1.14-.6-1.9,0-1.01.46-1.84,1.37-2.49.91-.64,2.08-.96,3.51-.96.72,0,1.43.07,2.13.21.7.14,1.31.31,1.82.52v2.51h-.3c-.44-.35-.98-.65-1.62-.88-.64-.24-1.29-.36-1.95-.36-.23,0-.47.02-.7.05-.23.03-.46.09-.67.18-.19.07-.35.18-.49.33-.14.15-.21.32-.21.51,0,.29.11.51.33.66.22.15.63.29,1.25.42.4.08.79.16,1.15.24.37.08.77.19,1.19.32.83.27,1.45.65,1.85,1.12.4.47.6,1.08.6,1.83Z"/><path class="cls-1" d="M214.44,172.56h-6.39v-1.93h1.79v-7.04h-1.79v-1.93h6.39v1.93h-1.79v7.04h1.79v1.93Z"/><path class="cls-1" d="M238.81,172.56h-2.9l-.76-2.21h-4.04l-.76,2.21h-2.83l4.03-10.91h3.24l4.03,10.91ZM234.47,168.35l-1.34-3.91-1.34,3.91h2.68Z"/></svg>