<?xml version="1.0" encoding="UTF-8"?><svg id="Layer_1" xmlns="http://www.w3.org/2000/svg" viewBox="0 0 548 73.45"><defs><style>.cls-1{fill:#6cbb48;}.cls-2{fill:#0c3450;}</style></defs><path class="cls-1" d="M18.04,6.22s40.44,23.64,33.6,53.51c0,0,33.6-23.02-33.6-53.51Z"/><path class="cls-1" d="M58.12,32.98s3.48,3.73,3.48,6.84c0,0,7.88-14.1,17.32-17.32,0,0-9.85-.11-20.8,10.47Z"/><circle class="cls-1" cx="57.56" cy="22.71" r="4.67"/><path class="cls-2" d="M64.09,6.22S23.64,29.87,30.49,59.73c0,0-33.6-23.02,33.6-53.51Z"/><path class="cls-2" d="M24.02,32.98s-3.48,3.73-3.48,6.84c0,0-7.88-14.1-17.32-17.32,0,0,9.85-.11,20.8,10.47Z"/><circle class="cls-2" cx="24.58" cy="22.71" r="4.67"/><circle class="cls-2" cx="41.38" cy="5.91" r="5.91"/><path class="cls-2" d="M84,55.7c0,9.8-18.8,17.75-42,17.75S0,65.5,0,55.7c0-4.32,3.65-8.27,9.71-11.35-4.16,2.53-6.6,5.58-6.6,8.85,0,8.76,17.41,15.87,38.89,15.87s38.89-7.11,38.89-15.87c0-3.27-2.43-6.32-6.6-8.85,6.06,3.08,9.71,7.03,9.71,11.35Z"/><path class="cls-2" d="M112.54,20.1v.65h-3.41l8.42,24.65h.09l4.91-13.94-3.65-10.71h-2.53v-.65h13.98v.65h-4.35l8.46,24.69h.09l8.65-24.69h-4.02v-.65h8.6v.65h-3.79l-12.02,33.9h-1.36l-7.67-22.12h-.09l-7.86,22.12h-1.36l-11.6-33.9h-3.83v-.65h14.31Z"/><path class="cls-2" d="M161.87,20.1l8.09,23.29h.09l8.23-23.29h11.69v.65h-4.3v31.99h4.3v.65h-15.34v-.65h4.26v-31.99h-.09l-11.5,32.64h-.75l-11.55-32.64h-.09v31.99h4.3v.65h-9.35v-.65h4.3v-31.99h-4.3v-.65h12.02Z"/><path class="cls-2" d="M196.24,43.01c.06.37.17.86.33,1.47.16.61.38,1.26.68,1.96.3.7.67,1.42,1.12,2.15.45.73,1.01,1.41,1.66,2.03.72.72,1.41,1.26,2.08,1.64.67.37,1.31.65,1.92.82.61.17,1.18.26,1.73.28.54.02,1.05.02,1.52.02,1.65,0,3.01-.26,4.07-.77,1.06-.51,1.89-1.15,2.5-1.89.61-.75,1.04-1.54,1.29-2.36.25-.83.37-1.55.37-2.17,0-1.15-.27-2.1-.82-2.85-.55-.75-1.27-1.37-2.17-1.87-.9-.5-1.93-.92-3.09-1.26-1.15-.34-2.34-.69-3.55-1.05-1.22-.36-2.4-.78-3.55-1.26s-2.18-1.11-3.09-1.87c-.9-.76-1.63-1.71-2.17-2.83-.55-1.12-.82-2.53-.82-4.21,0-1.25.28-2.45.84-3.6s1.34-2.17,2.34-3.06c1-.89,2.19-1.6,3.58-2.15,1.39-.55,2.89-.82,4.51-.82,1.03,0,1.93.09,2.71.28.78.19,1.46.38,2.06.58.59.2,1.11.4,1.57.58.45.19.86.28,1.24.28.44,0,.72-.07.86-.21.14-.14.29-.4.44-.77h.75v8.88h-.61c-.37-1.09-.77-2.17-1.19-3.23-.42-1.06-.96-2.02-1.61-2.88-.65-.86-1.48-1.55-2.48-2.08-1-.53-2.26-.79-3.79-.79-1.25,0-2.35.17-3.3.51-.95.34-1.75.79-2.41,1.36-.65.56-1.15,1.19-1.5,1.87-.34.69-.52,1.39-.52,2.1,0,1.09.29,2,.87,2.71.58.72,1.33,1.33,2.27,1.85.94.52,2,.96,3.2,1.33,1.2.37,2.43.76,3.69,1.17,1.26.41,2.49.85,3.69,1.33,1.2.48,2.27,1.1,3.2,1.85.94.75,1.69,1.65,2.27,2.71.58,1.06.86,2.37.86,3.93s-.31,2.98-.94,4.35c-.62,1.37-1.5,2.57-2.64,3.6-1.14,1.03-2.49,1.85-4.07,2.45-1.57.61-3.33.91-5.26.91-.97,0-1.93-.09-2.88-.28-.95-.19-1.84-.38-2.67-.58-.83-.2-1.56-.4-2.2-.58-.64-.19-1.12-.28-1.43-.28-.44,0-.75.07-.94.21-.19.14-.36.43-.51.86h-.75v-10.38h.7Z"/><path class="cls-2" d="M267.65,20.1v8h-.61c-.16-.53-.42-1.21-.79-2.03-.37-.83-.9-1.63-1.57-2.41-.67-.78-1.54-1.46-2.6-2.03-1.06-.58-2.35-.87-3.88-.87h-7.44v14.45h2.62c1.15,0,2.13-.16,2.92-.49s1.46-.79,1.99-1.4.97-1.34,1.31-2.2c.34-.86.62-1.82.84-2.88h.61v14.54h-.61c-.22-.9-.48-1.78-.77-2.62-.3-.84-.69-1.58-1.19-2.22-.5-.64-1.12-1.15-1.85-1.52-.73-.37-1.64-.56-2.74-.56h-3.13v16.88h7.67c1.43,0,2.73-.24,3.88-.72,1.15-.48,2.17-1.16,3.06-2.03.89-.87,1.63-1.89,2.22-3.06.59-1.17,1.04-2.42,1.36-3.76h.61v10.24h-29.88v-.65h4.3v-31.99h-4.3v-.65h27.96Z"/><path class="cls-2" d="M274.25,20.75v-.65h4.3c1.59,0,3.18-.02,4.77-.07,1.59-.05,3.18-.07,4.77-.07,1.4,0,2.88.09,4.44.28,1.56.19,3.1.52,4.63,1.01,1.53.48,2.98,1.13,4.35,1.94s2.59,1.84,3.65,3.09c1.06,1.25,1.9,2.73,2.52,4.44s.94,3.73.94,6.03-.31,4.27-.94,5.99c-.62,1.72-1.46,3.2-2.5,4.44-1.04,1.25-2.24,2.28-3.58,3.09-1.34.81-2.74,1.46-4.18,1.94s-2.88.82-4.3,1.01c-1.42.19-2.74.28-3.95.28-1.78,0-3.55-.02-5.31-.05-1.76-.03-3.53-.05-5.31-.05h-4.3v-.65h4.3v-31.99h-4.3ZM287.81,52.88c2.03,0,3.76-.24,5.19-.72,1.43-.48,2.64-1.14,3.62-1.96.98-.83,1.76-1.77,2.34-2.83.58-1.06,1.01-2.17,1.31-3.34s.49-2.34.58-3.51c.09-1.17.14-2.27.14-3.3,0-2.53-.16-4.81-.47-6.85s-.93-3.79-1.85-5.24c-.92-1.45-2.21-2.56-3.88-3.34-1.67-.78-3.86-1.17-6.57-1.17-.62,0-1.19,0-1.68.02-.5.02-.9.05-1.22.12v31.99c.9.09,1.73.14,2.48.14Z"/><path class="cls-2" d="M328.82,20.1v.65h-4.3v21c0,1.47.07,2.89.21,4.28.14,1.39.47,2.63.98,3.72.52,1.09,1.28,1.97,2.29,2.64,1.01.67,2.38,1.01,4.09,1.01s3.09-.19,4.23-.58c1.14-.39,2.08-.9,2.83-1.54.75-.64,1.32-1.36,1.73-2.15s.7-1.59.89-2.39c.19-.79.3-1.54.33-2.24.03-.7.05-1.29.05-1.75v-21.98h-4.26v-.65h9.35v.65h-4.35v21.93c0,.5-.02,1.13-.05,1.89-.03.76-.16,1.57-.38,2.41s-.55,1.68-.98,2.53c-.44.84-1.08,1.6-1.92,2.27-.84.67-1.9,1.22-3.18,1.64-1.28.42-2.85.63-4.72.63-3.02,0-5.46-.34-7.3-1.01s-3.25-1.54-4.23-2.62c-.98-1.08-1.63-2.3-1.94-3.67s-.47-2.76-.47-4.16v-21.84h-4.35v-.65h15.43Z"/><path class="cls-2" d="M379.42,29.64c-.34-1.03-.76-2.11-1.24-3.25-.48-1.14-1.11-2.18-1.87-3.13-.76-.95-1.72-1.73-2.85-2.34s-2.55-.91-4.23-.91c-2.27,0-4.07.42-5.38,1.26-1.31.84-2.3,2.01-2.97,3.51s-1.1,3.28-1.29,5.35c-.19,2.07-.28,4.34-.28,6.8,0,3.24.19,5.92.56,8.04.37,2.12.96,3.8,1.75,5.05.79,1.25,1.82,2.12,3.09,2.62,1.26.5,2.77.75,4.51.75,1.4,0,2.67-.28,3.81-.84s2.14-1.3,3.02-2.22c.87-.92,1.61-1.97,2.2-3.16.59-1.18,1.03-2.42,1.31-3.69h.75v9.91h-.75c-.16-.37-.34-.63-.56-.77-.22-.14-.55-.21-.98-.21-.38,0-.86.09-1.45.26-.59.17-1.27.36-2.03.56-.76.2-1.6.39-2.5.56-.9.17-1.86.26-2.85.26-2.28,0-4.47-.44-6.59-1.33s-3.98-2.1-5.59-3.65c-1.61-1.54-2.89-3.36-3.86-5.45-.97-2.09-1.45-4.35-1.45-6.78,0-2.65.54-5.05,1.61-7.2,1.07-2.15,2.45-3.99,4.14-5.52,1.68-1.53,3.56-2.7,5.64-3.53,2.07-.83,4.11-1.24,6.1-1.24,1,0,1.92.09,2.78.28.86.19,1.65.38,2.38.58s1.39.4,1.99.58c.59.19,1.09.28,1.5.28.44,0,.76-.05.98-.16s.37-.38.47-.82h.75v9.54h-.61Z"/><path class="cls-2" d="M386.85,52.74l13.94-33.95h1.26l14.73,33.95h4.02v.65h-15.71v-.65h4.35l-5.43-12.53h-11.22l-5.19,12.53h4.16v.65h-8.84v-.65h3.93ZM393.03,39.55h10.75l-5.52-12.77-5.24,12.77Z"/><path class="cls-2" d="M432.03,20.75c-1.15,0-2.18.12-3.09.35-.9.23-1.72.64-2.43,1.22-.72.58-1.36,1.38-1.92,2.41-.56,1.03-1.07,2.34-1.54,3.93h-.61v-8.56h29.32v8.56h-.61c-.47-1.59-.98-2.9-1.54-3.93-.56-1.03-1.2-1.83-1.92-2.41-.72-.58-1.53-.98-2.43-1.22-.91-.23-1.93-.35-3.09-.35h-1.68v31.99h4.3v.65h-15.39v-.65h4.3v-31.99h-1.68Z"/><path class="cls-2" d="M471.82,20.1v.65h-4.3v31.99h4.3v.65h-15.39v-.65h4.3v-31.99h-4.3v-.65h15.39Z"/><path class="cls-2" d="M478.25,29.64c1.07-2.15,2.46-3.99,4.14-5.52,1.68-1.53,3.57-2.7,5.66-3.53,2.09-.83,4.13-1.24,6.13-1.24,2.15,0,4.28.41,6.38,1.22,2.1.81,3.97,1.96,5.61,3.46,1.64,1.5,2.96,3.31,3.97,5.45,1.01,2.14,1.52,4.54,1.52,7.23,0,2.34-.48,4.56-1.43,6.66-.95,2.1-2.23,3.95-3.83,5.54-1.61,1.59-3.46,2.85-5.57,3.76s-4.32,1.38-6.66,1.38-4.52-.44-6.64-1.33c-2.12-.89-3.98-2.1-5.59-3.65-1.61-1.54-2.89-3.36-3.86-5.45-.97-2.09-1.45-4.35-1.45-6.78,0-2.65.54-5.05,1.61-7.2ZM484.82,44.91c.38,2.14.96,3.83,1.75,5.1.79,1.26,1.82,2.14,3.09,2.64,1.26.5,2.77.75,4.51.75,2.31,0,4.11-.43,5.42-1.29,1.31-.86,2.29-2.04,2.95-3.55.65-1.51,1.07-3.3,1.24-5.38.17-2.07.26-4.33.26-6.76,0-2.18-.07-4.26-.21-6.24-.14-1.98-.54-3.72-1.19-5.24-.65-1.51-1.64-2.71-2.97-3.6-1.33-.89-3.16-1.33-5.49-1.33-2.18,0-3.93.41-5.24,1.24-1.31.83-2.31,1.99-2.99,3.48-.69,1.5-1.14,3.27-1.36,5.33-.22,2.06-.33,4.32-.33,6.78,0,3.24.19,5.93.56,8.07Z"/><path class="cls-2" d="M527.28,20.1l15.57,22.26h.09v-21.61h-4.3v-.65h9.35v.65h-4.3v32.64h-1.26l-21.04-29.98h-.09v29.32h4.3v.65h-9.35v-.65h4.3v-31.99h-4.3v-.65h11.04Z"/></svg>